<svg width="62" height="16" viewBox="0 0 62 16" fill="none" xmlns="http://www.w3.org/2000/svg">
<path d="M2.82 9.88C2.82 10.5333 2.97333 11.12 3.28 11.64C3.6 12.1467 4.02 12.5467 4.54 12.84C5.06 13.1333 5.64667 13.28 6.3 13.28C6.98 13.28 7.58667 13.1333 8.12 12.84C8.65333 12.5467 9.07333 12.1467 9.38 11.64C9.68667 11.12 9.84 10.5333 9.84 9.88V0.539999H11.74V9.94C11.74 10.9933 11.4933 11.9133 11 12.7C10.52 13.4867 9.86667 14.0933 9.04 14.52C8.22667 14.9467 7.31333 15.16 6.3 15.16C5.28667 15.16 4.37333 14.9467 3.56 14.52C2.74667 14.0933 2.1 13.4867 1.62 12.7C1.14 11.9133 0.9 10.9933 0.9 9.94V0.539999H2.82V9.88ZM16.9089 6.72L17.0889 9.12L16.9889 8.8C17.2022 8.29333 17.5089 7.86667 17.9089 7.52C18.3222 7.16 18.7489 6.88667 19.1889 6.7C19.6422 6.5 20.0356 6.4 20.3689 6.4L20.2689 8.24C19.6422 8.2 19.0889 8.32 18.6089 8.6C18.1422 8.88 17.7689 9.25333 17.4889 9.72C17.2222 10.1867 17.0889 10.6867 17.0889 11.22V15H15.2489V6.72H16.9089ZM26.0131 15.2C25.2398 15.2 24.5331 15.0333 23.8931 14.7C23.2665 14.3667 22.7665 13.88 22.3931 13.24C22.0331 12.5867 21.8531 11.7933 21.8531 10.86C21.8531 9.94 22.0465 9.14667 22.4331 8.48C22.8198 7.8 23.3331 7.28 23.9731 6.92C24.6265 6.56 25.3398 6.38 26.1131 6.38C26.8865 6.38 27.5398 6.56 28.0731 6.92C28.6065 7.26667 29.0131 7.68 29.2931 8.16L29.1731 8.48L29.3531 6.72H31.0731V15H29.2131V12.84L29.4131 13.32C29.3598 13.4533 29.2398 13.6267 29.0531 13.84C28.8798 14.04 28.6398 14.2467 28.3331 14.46C28.0398 14.6733 27.6998 14.8533 27.3131 15C26.9265 15.1333 26.4931 15.2 26.0131 15.2ZM26.5131 13.66C26.9798 13.66 27.3998 13.5733 27.7731 13.4C28.1465 13.2267 28.4531 12.9867 28.6931 12.68C28.9465 12.36 29.1198 11.98 29.2131 11.54V9.92C29.1065 9.52 28.9198 9.17333 28.6531 8.88C28.3865 8.57333 28.0665 8.34 27.6931 8.18C27.3198 8.00667 26.9065 7.92 26.4531 7.92C25.9598 7.92 25.5065 8.04 25.0931 8.28C24.6798 8.52 24.3465 8.85333 24.0931 9.28C23.8531 9.70667 23.7331 10.2067 23.7331 10.78C23.7331 11.3133 23.8598 11.8 24.1131 12.24C24.3665 12.68 24.7065 13.0267 25.1331 13.28C25.5598 13.5333 26.0198 13.66 26.5131 13.66ZM35.9519 6.72L36.1119 8.74L36.0319 8.42C36.2985 7.80667 36.7319 7.32 37.3319 6.96C37.9319 6.58667 38.6252 6.4 39.4119 6.4C40.1985 6.4 40.8385 6.63333 41.3319 7.1C41.8385 7.55333 42.0985 8.14667 42.1119 8.88V15H40.2319V9.54C40.2185 9.08667 40.0852 8.72 39.8319 8.44C39.5919 8.14667 39.2119 8 38.6919 8C38.2119 8 37.7785 8.13333 37.3919 8.4C37.0052 8.66667 36.6985 9.03333 36.4719 9.5C36.2585 9.96667 36.1519 10.5067 36.1519 11.12V15H34.2919V6.72H35.9519ZM47.9666 15.32C47.2199 15.32 46.5999 15.0933 46.1066 14.64C45.6266 14.1733 45.3732 13.5733 45.3466 12.84V6.72H47.2066V12.18C47.2332 12.6333 47.3599 13 47.5866 13.28C47.8266 13.56 48.1999 13.7067 48.7066 13.72C49.1732 13.72 49.5866 13.5867 49.9466 13.32C50.3199 13.04 50.6199 12.6667 50.8466 12.2C51.0732 11.72 51.1866 11.18 51.1866 10.58V6.72H53.0466V15H51.3466L51.1866 12.96L51.2866 13.32C51.1266 13.7067 50.8799 14.0533 50.5466 14.36C50.2266 14.6533 49.8466 14.8867 49.4066 15.06C48.9666 15.2333 48.4866 15.32 47.9666 15.32ZM58.5845 15.16C57.9979 15.16 57.4245 15.06 56.8645 14.86C56.3179 14.6467 55.8645 14.3333 55.5045 13.92L56.2845 12.84C56.6312 13.1733 56.9845 13.4267 57.3445 13.6C57.7179 13.76 58.0845 13.84 58.4445 13.84C58.7112 13.84 58.9579 13.8067 59.1845 13.74C59.4112 13.6733 59.5912 13.5667 59.7245 13.42C59.8712 13.26 59.9445 13.0467 59.9445 12.78C59.9445 12.4867 59.8445 12.2533 59.6445 12.08C59.4579 11.9067 59.2112 11.7667 58.9045 11.66C58.6112 11.5533 58.2979 11.4533 57.9645 11.36C57.2845 11.1333 56.7645 10.82 56.4045 10.42C56.0445 10.02 55.8645 9.53333 55.8645 8.96C55.8645 8.52 55.9712 8.11333 56.1845 7.74C56.4112 7.35333 56.7379 7.04 57.1645 6.8C57.6045 6.56 58.1445 6.44 58.7845 6.44C59.3579 6.44 59.8712 6.51333 60.3245 6.66C60.7779 6.79333 61.2045 7.02 61.6045 7.34L60.8645 8.5C60.6245 8.24667 60.3379 8.06 60.0045 7.94C59.6712 7.82 59.3712 7.75333 59.1045 7.74C58.8779 7.72667 58.6579 7.76 58.4445 7.84C58.2445 7.92 58.0779 8.03333 57.9445 8.18C57.8112 8.32667 57.7445 8.5 57.7445 8.7C57.7445 8.98 57.8379 9.20667 58.0245 9.38C58.2112 9.55333 58.4512 9.69333 58.7445 9.8C59.0512 9.89333 59.3512 9.99333 59.6445 10.1C60.0579 10.22 60.4245 10.38 60.7445 10.58C61.0645 10.78 61.3179 11.0267 61.5045 11.32C61.7045 11.6133 61.8045 11.98 61.8045 12.42C61.8045 12.9133 61.6845 13.3733 61.4445 13.8C61.2179 14.2133 60.8645 14.5467 60.3845 14.8C59.9179 15.04 59.3179 15.16 58.5845 15.16Z" fill="#C7C7C7"/>
</svg>
